# xmcd CD database file
#
# Track frame offsets:
#	150
#	9525
#	13125
#	25875
#	40500
#	47400
#	67275
#	77775
#	84075
#	103500
#	108975
#	117375
#	129450
#	138975
#	150450
#	168150
#	175725
#	189000
#	194925
#	214275
#	243150
#	269925
#	278625
#	292575
#	309300
#	322350
#
# Disc length: 4499 seconds
#
# Revision: 3
# Processed by: cddbd v1.5.2PL0 Copyright (c) Steve Scherf et al.
# Submitted via: CDex 1.70beta2
#
DISCID=6711911a
DTITLE=Various Artist - YUSAKU MATSUDA CHRONICLE '73～'89
DYEAR=1997
DGENRE=Pop
TTITLE0=大野克夫/太陽にほえろ! 青春のテーマ(ジーパン刑事のテーマ)
TTITLE1=真鍋理一郎/狼の紋章
TTITLE2=木下忠司/赤い迷路のテーマ
TTITLE3=吉田拓郎/俺たちの紋章のテーマ
TTITLE4=チト河内/俺たちの紋章～攻撃のテーマ～
TTITLE5=松田優作/風が吹く～ヴォーカルデビューアルバム「まつりうた」収録曲～
TTITLE6=菊池俊輔/暴力教室 タイトルバック
TTITLE7=Game/大都会Part
TTITLE8=ジョー山中/人間の証明のテーマ
TTITLE9=大野雄二/最も危険な遊戯のテーマ
TTITLE10=大野雄二/殺人遊戯 タイトルバック
TTITLE11=大野雄二/乱れからくり メインタイトル～タイトルバック～
TTITLE12=竹田由彦/俺たちに墓はない ラストシーン～エンドタイトル～
TTITLE13=ケーシー・ラッキントッシュ/蘇る金狼 タイトルバック
TTITLE14=ケーシー・ラッキントッシュ/蘇る金狼 メインテーマ
TTITLE15=SHOGUN/探偵物語～Bad City (Tv ヴァージョン)～
TTITLE16=SHOGUN/探偵物語～華麗なる追跡～
TTITLE17=大野雄二/処刑遊戯 エンディングテーマ
TTITLE18=たかしまあきひこ/野獣死すべし メインテーマ
TTITLE19=季　世福/横浜Bjブルース～灰色の街～
TTITLE20=鈴木キサブロー/横浜Bjブルース～マリーズ・ララバイ～
TTITLE21=木森敏之/火曜サスペンス劇場・第18話死の断崖～偽りの愛～
TTITLE22=梅林　茂/それから メインテーマ
TTITLE23=奈良敏博　羽山伸也/ア・ホーマンス
TTITLE24=R.B.A./ア・ホーマンス～After'45～
TTITLE25=梅林　茂/華麗なる追跡 エンドタイトル
EXTD=YEAR: 1997
EXTT0=
EXTT1=
EXTT2=
EXTT3=
EXTT4=
EXTT5=
EXTT6=
EXTT7=
EXTT8=
EXTT9=
EXTT10=
EXTT11=
EXTT12=
EXTT13=
EXTT14=
EXTT15=
EXTT16=
EXTT17=
EXTT18=
EXTT19=
EXTT20=
EXTT21=
EXTT22=
EXTT23=
EXTT24=
EXTT25=
PLAYORDER=
